# xmcd
#
# Track frame offsets:
#	150
#	19043
#	35883
#	57398
#	75493
#	92934
#	106926
#	124159
#	137604
#	156089
#
# Disc length: 2305 seconds
#
# Revision: 1
# Processed by: cddbd v1.5.2PL0 Copyright (c) Steve Scherf et al.
# Submitted via: audiograbber 1.83.01
#
DISCID=7f08ff0a
DTITLE=Billy Joe Royal - The Royal Treatment
DYEAR=2008
DGENRE=Country
TTITLE0=I'll Pin A Note On Your Pillow
TTITLE1=Give 'Em My Number
TTITLE2=He'll Have To Go
TTITLE3=Look What You've Done To My Heart
TTITLE4=Let It Rain
TTITLE5=It's Who's In Your Heart
TTITLE6=Out of Sight And On My Mind
TTITLE7=It Keeps Right On A-Hurtin'
TTITLE8=She Don't Cry Like She Used To
TTITLE9=A Place For The Heartache
EXTD=
EXTT0=
EXTT1=
EXTT2=
EXTT3=
EXTT4=
EXTT5=
EXTT6=
EXTT7=
EXTT8=
EXTT9=
PLAYORDER=
